<svg xmlns="http://www.w3.org/2000/svg" xmlns:xlink="http://www.w3.org/1999/xlink" width="214.13" height="54.4" viewBox="0 0 214.13 54.4">
  <defs>
    <clipPath id="clip-path">
      <rect width="214.13" height="54.4" fill="none"/>
    </clipPath>
  </defs>
  <g id="footer_logo" data-name="footer logo" clip-path="url(#clip-path)">
    <g id="Group_2" data-name="Group 2" transform="translate(83.443 28.461)">
      <g id="Group_1" data-name="Group 1" transform="translate(0 0)">
        <path id="Path_1" data-name="Path 1" d="M497.333-233.6h-3.761v5.853h4.307l-.295,2.092H491.3v-16.963h6.246v2.109h-3.971v4.817h3.761Z" transform="translate(-491.297 242.873)" fill="#ff745c"/>
        <path id="Path_2" data-name="Path 2" d="M532.649-231.4v1.021c0,1.4.451,2.17,1.528,2.17,1.1,0,1.457-.93,1.457-2.35,0-1.892-.412-2.544-2.217-3.961-1.821-1.432-2.773-2.326-2.773-4.833,0-2.2.663-4.374,3.556-4.366,2.876.008,3.437,2.008,3.437,3.98v.856h-2.257v-.8c0-1.277-.231-2.073-1.223-2.073s-1.238.857-1.238,2.068c0,1.357.264,1.949,1.782,3.076,2.461,1.836,3.226,2.885,3.226,5.714,0,2.4-.775,4.632-3.813,4.632-2.97,0-3.739-1.913-3.739-4.147v-.993Z" transform="translate(-521.299 243.721)" fill="#ff745c"/>
        <path id="Path_3" data-name="Path 3" d="M574.777-240.507h-2.732v-2.109h7.742v2.109h-2.735v14.854h-2.275Z" transform="translate(-553.292 242.873)" fill="#ff745c"/>
        <path id="Path_4" data-name="Path 4" d="M612.019-230.559l-.685,4.907h-2.311l2.755-16.963H615l2.865,16.963h-2.379l-.754-4.907Zm2.437-2.092c-.474-3.241-.868-6.039-1.048-7.825h-.086c-.069,1.361-.619,5.071-1.008,7.825Z" transform="translate(-581.682 242.873)" fill="#ff745c"/>
        <path id="Path_5" data-name="Path 5" d="M653-240.507h-2.732v-2.109h7.742v2.109h-2.735v14.854H653Z" transform="translate(-613.35 242.873)" fill="#ff745c"/>
        <path id="Path_6" data-name="Path 6" d="M701.255-233.6h-3.761v5.853H701.8l-.295,2.092H695.22v-16.963h6.246v2.109h-3.971v4.817h3.761Z" transform="translate(-647.86 242.873)" fill="#ff745c"/>
        <path id="Path_7" data-name="Path 7" d="M763.076-231.428v.625c0,2.031-.35,4.6-3.719,4.6-3.056,0-3.653-2.014-3.653-4.561v-8.586c0-2.658,1.178-4.295,3.688-4.295,3.04,0,3.607,2.073,3.607,4.368v.719h-2.29v-.953c0-1.218-.242-2.06-1.332-2.06-1.053,0-1.355.781-1.355,2.083v8.9c0,1.357.284,2.326,1.4,2.326s1.35-.916,1.35-2.319v-.849Z" transform="translate(-694.298 243.663)" fill="#ff745c"/>
        <path id="Path_8" data-name="Path 8" d="M806.964-233.6H803.2v5.853h4.307l-.295,2.092h-6.287v-16.963h6.246v2.109H803.2v4.817h3.761Z" transform="translate(-729.018 242.873)" fill="#ff745c"/>
        <path id="Path_9" data-name="Path 9" d="M841.58-225.653v-16.963h2.661c.777,2.708,2.942,11.3,3.162,12.4h.033c-.112-2.168-.127-4.555-.127-7.334v-5.07h2.115v16.963H846.86c-.69-2.514-3.021-11.831-3.254-12.812h-.026c.119,2.049.132,4.522.132,7.577v5.235Z" transform="translate(-760.229 242.873)" fill="#ff745c"/>
        <path id="Path_10" data-name="Path 10" d="M890-240.507h-2.732v-2.109h7.742v2.109H892.27v14.854H890Z" transform="translate(-795.303 242.873)" fill="#ff745c"/>
        <path id="Path_11" data-name="Path 11" d="M934.563-233.379v7.727h-2.275v-16.963h3.346c2.568,0,3.978,1.061,3.978,4.01v.7c0,2.479-.96,3.261-1.727,3.553,1.026.437,1.564,1.191,1.564,3.479a46.02,46.02,0,0,0,.16,5.221h-2.2a37.772,37.772,0,0,1-.177-5.066c0-2.123-.284-2.661-1.871-2.661Zm0-1.9h.814c1.48,0,1.952-.695,1.952-2.526v-.655c0-1.411-.335-2.264-1.909-2.264h-.857Z" transform="translate(-829.871 242.873)" fill="#ff745c"/>
        <path id="Path_12" data-name="Path 12" d="M978.516-230.559l-.685,4.907h-2.31l2.755-16.963H981.5l2.864,16.963h-2.379l-.754-4.907Zm2.437-2.092c-.474-3.241-.868-6.039-1.048-7.825h-.087c-.068,1.361-.619,5.071-1.007,7.825Z" transform="translate(-863.063 242.873)" fill="#ff745c"/>
        <path id="Path_13" data-name="Path 13" d="M1025.85-242.616h2.275v14.925h4.266l-.214,2.038h-6.328Z" transform="translate(-901.704 242.873)" fill="#ff745c"/>
      </g>
    </g>
    <g id="Group_4" data-name="Group 4">
      <g id="Group_3" data-name="Group 3">
        <path id="Path_14" data-name="Path 14" d="M262.057-292.5v-38.355l-12.7,11.731v-10.185L233.667-345v16.975L221.224-316.72V-292.5H205v1.757h17.981v-25.2l10.686-9.711V-292.5h-4.682v-22.079h-1.757v23.835h8.2v-50.012L247.6-328.583v37.837h7.976v-24.362h-1.757V-292.5h-4.462v-24.235L260.3-326.843v36.1h18.28V-292.5Z" transform="translate(-205 345)" fill="#ff745c"/>
        <rect id="Rectangle_17" data-name="Rectangle 17" width="1.757" height="37.305" transform="translate(35.412 17.095)" fill="#ff745c"/>
      </g>
      <path id="Path_15" data-name="Path 15" d="M223.654-178.327l-.018-.878a3.1,3.1,0,0,1,1.788-3.123,3.219,3.219,0,0,1,3.1.206c.013.084.031.167.048.25l.2.856,1.713-.4-.2-.852a.187.187,0,0,1-.009-.048,1.824,1.824,0,0,1-.026-.65,1.629,1.629,0,0,1,.294-.711,1.62,1.62,0,0,1,.949-.654l.879-.07-.145-1.752-.874.075a3.292,3.292,0,0,0-2.227,1.366,3.31,3.31,0,0,0-.4.707,5.034,5.034,0,0,0-4.045.079,4.919,4.919,0,0,0-2.811,4.752l.018.878Z" transform="translate(-217.254 229.669)" fill="#ff745c"/>
      <path id="Path_16" data-name="Path 16" d="M419.381-183.676a1.629,1.629,0,0,1,.294.711,1.823,1.823,0,0,1-.026.65.186.186,0,0,1-.009.048l-.2.852,1.713.4.2-.856c.018-.083.035-.167.048-.25a3.22,3.22,0,0,1,3.105-.206,3.1,3.1,0,0,1,1.788,3.123l-.018.878,1.757.031.018-.878a4.919,4.919,0,0,0-2.811-4.752,5.034,5.034,0,0,0-4.045-.079,3.31,3.31,0,0,0-.4-.707,3.292,3.292,0,0,0-2.227-1.366l-.874-.075-.145,1.752.879.07A1.618,1.618,0,0,1,419.381-183.676Z" transform="translate(-359.325 229.669)" fill="#ff745c"/>
    </g>
  </g>
</svg>
