<svg xmlns="http://www.w3.org/2000/svg" xmlns:xlink="http://www.w3.org/1999/xlink" width="299.06" height="75.976" viewBox="0 0 299.06 75.976">
  <defs>
    <clipPath id="clip-path">
      <rect width="299.06" height="75.976" fill="none"/>
    </clipPath>
  </defs>
  <g id="Logo" clip-path="url(#clip-path)">
    <g id="Group_2" data-name="Group 2" transform="translate(116.539 39.75)">
      <g id="Group_1" data-name="Group 1" transform="translate(0 0)">
        <path id="Path_1" data-name="Path 1" d="M499.726-230.02h-5.252v8.174h6.015l-.412,2.921H491.3v-23.692h8.724v2.946h-5.547v6.728h5.252Z" transform="translate(-491.297 242.974)" fill="#303030"/>
        <path id="Path_2" data-name="Path 2" d="M533.551-226.517v1.426c0,1.96.63,3.031,2.134,3.031,1.539,0,2.035-1.3,2.035-3.282,0-2.642-.575-3.552-3.1-5.532-2.543-2-3.873-3.249-3.873-6.75,0-3.072.926-6.108,4.967-6.1,4.016.011,4.8,2.8,4.8,5.559v1.2h-3.152v-1.111c0-1.783-.322-2.9-1.708-2.9-1.371,0-1.729,1.2-1.729,2.889,0,1.9.368,2.722,2.489,4.3,3.438,2.565,4.505,4.03,4.505,7.981,0,3.348-1.082,6.47-5.325,6.47-4.148,0-5.222-2.671-5.222-5.792v-1.387Z" transform="translate(-517.699 243.721)" fill="#303030"/>
        <path id="Path_3" data-name="Path 3" d="M575.861-239.67h-3.816v-2.946h10.813v2.946h-3.82v20.745h-3.177Z" transform="translate(-545.854 242.974)" fill="#303030"/>
        <path id="Path_4" data-name="Path 4" d="M613.207-225.777l-.957,6.853h-3.227l3.848-23.692h4.5l4,23.692H618.05L617-225.777Zm3.4-2.921c-.663-4.526-1.212-8.434-1.464-10.928h-.121c-.1,1.9-.865,7.082-1.407,10.928Z" transform="translate(-570.838 242.974)" fill="#303030"/>
        <path id="Path_5" data-name="Path 5" d="M654.087-239.67h-3.816v-2.946h10.813v2.946h-3.82v20.745h-3.177Z" transform="translate(-598.707 242.974)" fill="#303030"/>
        <path id="Path_6" data-name="Path 6" d="M703.649-230.02H698.4v8.174h6.015L704-218.924h-8.78v-23.692h8.724v2.946H698.4v6.728h5.252Z" transform="translate(-629.076 242.974)" fill="#303030"/>
        <path id="Path_7" data-name="Path 7" d="M766-226.583v.873c0,2.837-.489,6.424-5.194,6.424-4.268,0-5.1-2.812-5.1-6.37v-11.991c0-3.713,1.646-6,5.151-6,4.246,0,5.038,2.895,5.038,6.1v1h-3.2v-1.331c0-1.7-.337-2.877-1.861-2.877-1.471,0-1.893,1.091-1.893,2.909v12.432c0,1.9.4,3.249,1.949,3.249s1.886-1.279,1.886-3.239v-1.186Z" transform="translate(-669.943 243.67)" fill="#303030"/>
        <path id="Path_8" data-name="Path 8" d="M809.357-230.02h-5.252v8.174h6.015l-.412,2.921h-8.78v-23.692h8.723v2.946h-5.546v6.728h5.252Z" transform="translate(-700.497 242.974)" fill="#303030"/>
        <path id="Path_9" data-name="Path 9" d="M841.58-218.924v-23.692H845.3c1.085,3.782,4.109,15.782,4.417,17.323h.046c-.156-3.028-.177-6.362-.177-10.242v-7.081h2.953v23.692h-3.582c-.963-3.511-4.219-16.523-4.544-17.894h-.036c.167,2.862.185,6.315.185,10.582v7.312Z" transform="translate(-727.964 242.974)" fill="#303030"/>
        <path id="Path_10" data-name="Path 10" d="M891.079-239.67h-3.816v-2.946h10.813v2.946h-3.82v20.745h-3.177Z" transform="translate(-758.829 242.974)" fill="#303030"/>
        <path id="Path_11" data-name="Path 11" d="M935.465-229.716v10.791h-3.177v-23.692h4.673c3.586,0,5.555,1.482,5.555,5.6v.978c0,3.463-1.341,4.554-2.412,4.962,1.433.61,2.185,1.663,2.185,4.859a64.274,64.274,0,0,0,.223,7.292h-3.078a52.758,52.758,0,0,1-.248-7.075c0-2.965-.4-3.716-2.613-3.716Zm0-2.648H936.6c2.067,0,2.727-.97,2.727-3.528v-.914c0-1.971-.468-3.162-2.666-3.162h-1.2Z" transform="translate(-789.25 242.974)" fill="#303030"/>
        <path id="Path_12" data-name="Path 12" d="M979.7-225.777l-.957,6.853H975.52l3.848-23.692h4.5l4,23.692h-3.322l-1.053-6.853Zm3.4-2.921c-.663-4.526-1.212-8.434-1.464-10.928h-.121c-.1,1.9-.865,7.082-1.407,10.928Z" transform="translate(-818.459 242.974)" fill="#303030"/>
        <path id="Path_13" data-name="Path 13" d="M1025.85-242.616h3.177v20.845h5.959l-.3,2.847h-8.837Z" transform="translate(-852.465 242.974)" fill="#303030"/>
      </g>
    </g>
    <g id="Group_4" data-name="Group 4">
      <g id="Group_3" data-name="Group 3">
        <path id="Path_14" data-name="Path 14" d="M284.687-271.68v-53.568l-17.739,16.384v-14.225L245.037-345v23.708L227.659-305.5v33.829H205v2.454h25.113v-35.2l14.924-13.562v46.3H238.5v-30.836h-2.454v33.289H247.49v-69.848l17,17v52.844h11.139v-34.025h-2.454v31.572h-6.232v-33.847l15.286-14.114v50.415h25.53v-2.454Z" transform="translate(-205 345)" fill="#ff745c"/>
        <rect id="Rectangle_17" data-name="Rectangle 17" width="2.454" height="52.101" transform="translate(49.457 23.875)" fill="#ff745c"/>
      </g>
      <path id="Path_15" data-name="Path 15" d="M224.358-175.222l-.025-1.227a4.336,4.336,0,0,1,2.5-4.361,4.5,4.5,0,0,1,4.336.288c.019.117.043.233.068.35l.276,1.2,2.392-.558-.276-1.19a.261.261,0,0,1-.012-.067,2.547,2.547,0,0,1-.037-.908,2.275,2.275,0,0,1,.411-.994,2.262,2.262,0,0,1,1.325-.914l1.227-.1-.2-2.448-1.221.1a4.6,4.6,0,0,0-3.11,1.908,4.621,4.621,0,0,0-.552.988,7.03,7.03,0,0,0-5.65.11,6.869,6.869,0,0,0-3.926,6.637l.024,1.227Z" transform="translate(-215.42 246.929)" fill="#ff745c"/>
      <path id="Path_16" data-name="Path 16" d="M420.106-182.693a2.275,2.275,0,0,1,.411.994,2.547,2.547,0,0,1-.037.908.26.26,0,0,1-.012.067l-.276,1.19,2.392.558.276-1.2c.024-.116.049-.233.067-.35a4.5,4.5,0,0,1,4.337-.288,4.336,4.336,0,0,1,2.5,4.361l-.025,1.227,2.453.043.025-1.227a6.87,6.87,0,0,0-3.926-6.637,7.03,7.03,0,0,0-5.65-.11,4.622,4.622,0,0,0-.552-.988,4.6,4.6,0,0,0-3.11-1.908l-1.221-.1-.2,2.448,1.227.1A2.26,2.26,0,0,1,420.106-182.693Z" transform="translate(-336.23 246.929)" fill="#ff745c"/>
    </g>
  </g>
</svg>
