<svg xmlns="http://www.w3.org/2000/svg" width="102" height="93.402" viewBox="0 0 102 93.402">
  <g id="Manage_property_icon" data-name="Manage property icon" transform="translate(-1482.25 -486.25)">
    <g id="Path_82" data-name="Path 82" transform="translate(0)" fill="none" stroke-linecap="round" stroke-linejoin="round">
      <path d="M1488.5,486.25H1578a6.253,6.253,0,0,1,6.253,6.253v64.483a6.253,6.253,0,0,1-6.253,6.253h-31.655L1535,579.652l-13.278-17.2H1488.5a6.253,6.253,0,0,1-6.253-6.253V492.5A6.253,6.253,0,0,1,1488.5,486.25Z" stroke="none"/>
      <path d="M 1488.502807617188 490.25 C 1487.260498046875 490.25 1486.249877929688 491.2606201171875 1486.249877929688 492.5028686523438 L 1486.249877929688 556.2040405273438 C 1486.249877929688 557.4462890625 1487.260498046875 558.4569091796875 1488.502807617188 558.4569091796875 L 1521.721313476563 558.4569091796875 C 1522.960571289063 558.4569091796875 1524.1298828125 559.0313110351563 1524.887329101563 560.01220703125 L 1534.820068359375 572.8755493164063 L 1543.05126953125 560.9644775390625 C 1543.798095703125 559.8836669921875 1545.028076171875 559.238525390625 1546.341918945313 559.238525390625 L 1577.997192382813 559.238525390625 C 1579.239379882813 559.238525390625 1580.249877929688 558.2279052734375 1580.249877929688 556.9856567382813 L 1580.249877929688 492.5028686523438 C 1580.249877929688 491.2606201171875 1579.239379882813 490.25 1577.997192382813 490.25 L 1488.502807617188 490.25 M 1488.502807617188 486.25 L 1577.997192382813 486.25 C 1581.450317382813 486.25 1584.249877929688 489.0496826171875 1584.249877929688 492.5028686523438 L 1584.249877929688 556.9856567382813 C 1584.249877929688 560.4387817382813 1581.450317382813 563.238525390625 1577.997192382813 563.238525390625 L 1546.341918945313 563.238525390625 L 1534.999145507813 579.6522827148438 L 1521.721313476563 562.4569091796875 L 1488.502807617188 562.4569091796875 C 1485.049682617188 562.4569091796875 1482.249877929688 559.6571655273438 1482.249877929688 556.2040405273438 L 1482.249877929688 492.5028686523438 C 1482.249877929688 489.0496826171875 1485.049682617188 486.25 1488.502807617188 486.25 Z" stroke="none" fill="#ff745c"/>
    </g>
    <line id="Line_7" data-name="Line 7" x2="51.379" transform="translate(1506.871 505.79)" fill="none" stroke="#ff745c" stroke-linecap="round" stroke-linejoin="round" stroke-width="4"/>
    <line id="Line_8" data-name="Line 8" x2="52.759" transform="translate(1506.871 523.376)" fill="none" stroke="#ff745c" stroke-linecap="round" stroke-linejoin="round" stroke-width="4"/>
    <line id="Line_9" data-name="Line 9" x2="51.379" transform="translate(1506.871 539.79)" fill="none" stroke="#ff745c" stroke-linecap="round" stroke-linejoin="round" stroke-width="4"/>
  </g>
</svg>
